<svg xmlns="http://www.w3.org/2000/svg" width="84" height="84" viewBox="0 0 84 84">
    <defs>
        <linearGradient id="a" x1="100%" x2="-1.306%" y1="32.867%" y2="68.2%">
            <stop offset="0%" stop-color="#B65298"/>
            <stop offset="100%" stop-color="#EE7946"/>
        </linearGradient>
        <linearGradient id="b" x1="100%" x2="-1.306%" y1="46.066%" y2="54.179%">
            <stop offset="0%" stop-color="#B65298"/>
            <stop offset="100%" stop-color="#EE7946"/>
        </linearGradient>
    </defs>
    <g fill="none" fill-rule="nonzero">
        <path fill="url(#a)" stroke="url(#a)" d="M21.131 45.898v-1.124a2.226 2.226 0 0 0 1.168-2.08v-.176h-3.222v.176a2.226 2.226 0 0 0 1.168 2.08v1.124h-2.336v-4.062c0-.707-.146-1.407-.426-2.054l-.574-1.326a5.345 5.345 0 0 1-.44-2.125V34h-1.576v2.331c0 .732-.15 1.455-.44 2.125l-.574 1.326a5.172 5.172 0 0 0-.425 2.054v4.062H1.21A1.22 1.22 0 0 0 0 47.128c0 .68.542 1.23 1.211 1.23h11.032v32.41c0 .68.542 1.23 1.21 1.23a1.22 1.22 0 0 0 1.212-1.23v-11.2H27.13v2.258l-5.882 8.221a1.246 1.246 0 0 0-.126 1.223 1.204 1.204 0 1 0 2.086.222l5.133-7.173 5.132 7.174c.254.355.676.546 1.106.5.43-.046.804-.321.98-.723a1.246 1.246 0 0 0-.126-1.223l-5.882-8.22v-2.26h22.895v2.26l-5.882 8.22a1.242 1.242 0 0 0 .268 1.718 1.2 1.2 0 0 0 1.692-.272l5.133-7.174 5.132 7.174a1.2 1.2 0 0 0 1.692.272c.54-.399.661-1.168.268-1.718l-5.882-8.22v-2.26h12.467v11.201c0 .68.542 1.23 1.21 1.23a1.22 1.22 0 0 0 1.212-1.23V48.358h11.032A1.22 1.22 0 0 0 82 47.128c0-.68-.542-1.23-1.211-1.23H21.131zm-6.466 21.21v-3.162H27.13v3.162H14.665zm14.888 0v-3.162h22.894v3.162H29.553zm25.315 0v-3.162h12.467v3.162H54.868zm12.467-5.62H54.869v-1.741h5.017a1.22 1.22 0 0 0 1.21-1.23c0-.68-.542-1.23-1.21-1.23H47.43a1.22 1.22 0 0 0-1.211 1.23c0 .679.542 1.23 1.21 1.23h5.018v1.74H29.553v-1.74h5.017a1.22 1.22 0 0 0 1.211-1.23c0-.68-.542-1.23-1.21-1.23H22.113a1.22 1.22 0 0 0-1.21 1.23c0 .679.542 1.23 1.21 1.23h5.017v1.74H14.665v-13.13h52.67v13.13z" transform="translate(1 1)"/>
        <path fill="url(#b)" stroke="url(#b)" d="M1.211 2.406h11.032v9.867c-3.528.59-6.114 3.622-6.119 7.177 0 .664.542 1.203 1.211 1.203h2.774a3.553 3.553 0 0 0 3.349 2.346c1.503 0 2.844-.94 3.348-2.346h2.772c.668 0 1.21-.539 1.21-1.203-.005-3.557-2.593-6.59-6.123-7.177V2.406h52.67v9.867c-3.529.588-6.116 3.621-6.12 7.177 0 .665.541 1.204 1.21 1.204h2.768A3.553 3.553 0 0 0 68.542 23c1.503 0 2.844-.94 3.348-2.346h2.775c.669 0 1.21-.54 1.21-1.204-.004-3.555-2.59-6.588-6.118-7.177V2.406H80.79c.669 0 1.211-.538 1.211-1.203C82 .54 81.458 0 80.789 0H1.211C.542 0 0 .539 0 1.203c0 .665.542 1.203 1.211 1.203zm17.002 15.84H8.694a4.908 4.908 0 0 1 4.76-3.67 4.908 4.908 0 0 1 4.759 3.67zm55.093 0h-9.518a4.908 4.908 0 0 1 4.759-3.669 4.908 4.908 0 0 1 4.759 3.67z" transform="translate(1 1)"/>
    </g>
</svg>
