<svg xmlns="http://www.w3.org/2000/svg" width="29" height="33" viewBox="0 0 29 33">
    <path fill="#4A4A4A" fill-rule="nonzero" d="M24.627 31.9h2.348-.46V14.85a.55.55 0 0 0-.306-.492l-4.114-2.048V9.35a.55.55 0 0 0-.4-.53l-7.333-2.085V.55A.551.551 0 0 0 13.81 0H2.762a.551.551 0 0 0-.552.55V31.9H0V33h29v-1.1h-4.373zm-11.37 0H3.314v-1.1h4.972v-1.1H3.314v-2.2h4.972v-1.1H3.314v-2.2h4.972v-1.1H3.314v-2.2h4.972v-1.1H3.314v-2.2h4.972v-1.1H3.314v-2.2h4.972v-1.1H3.314V11h4.972V9.9H3.314V7.7h4.972V6.6H3.314V4.4h4.972V3.3H3.314V1.1h9.943v30.8zm7.733 0h-6.628v-1.1h3.867v-1.1h-3.867v-2.2h3.867v-1.1h-3.867v-2.2h3.867v-1.1h-3.867v-2.2h3.867v-1.1h-3.867v-2.2h3.867v-1.1h-3.867v-2.2h3.867v-1.1h-3.867V11h3.867V9.9h-3.867V7.88l6.628 1.885V31.9zm4.42 0h-3.315v-1.1h1.657v-1.1h-1.657v-2.2h1.657v-1.1h-1.657v-2.2h1.657v-1.1h-1.657v-2.2h1.657v-1.1h-1.657v-2.2h1.657v-1.1h-1.657v-2.96l3.315 1.65V31.9z"/>
</svg>
