<svg xmlns="http://www.w3.org/2000/svg" width="82" height="82" viewBox="0 0 82 82">
    <defs>
        <linearGradient id="a" x1="100%" x2="-1.306%" y1="19.542%" y2="82.355%">
            <stop offset="0%" stop-color="#B65298"/>
            <stop offset="100%" stop-color="#EE7946"/>
        </linearGradient>
        <linearGradient id="b" x1="100%" x2="-1.306%" y1="7.396%" y2="95.257%">
            <stop offset="0%" stop-color="#B65298"/>
            <stop offset="100%" stop-color="#EE7946"/>
        </linearGradient>
    </defs>
    <g fill="none" fill-rule="nonzero">
        <path fill="url(#a)" d="M82 26.17c0-4.506-3.678-8.17-8.2-8.17-4.522 0-8.2 3.664-8.2 8.17 0 2.412 1.06 4.576 2.733 6.073v10.268H13.667V32.243c1.672-1.496 2.733-3.66 2.733-6.073 0-4.506-3.678-8.17-8.2-8.17C3.678 18 0 21.664 0 26.17c0 2.412 1.06 4.576 2.733 6.073V82h10.934v-5.447h54.666V82h10.934V32.243C80.939 30.746 82 28.582 82 26.17zM68.333 52.043H61.5v-6.809h6.833v6.809zm-28.7 0H32.8v-6.809h6.833v6.809zm2.734-6.809H49.2v6.809h-6.833v-6.809zm-12.3 6.809h-6.834v-6.809h6.834v6.809zm0 3.723V73.83h-6.834V55.766h6.834zm2.733 0h6.833V73.83H32.8V55.766zm9.567 0H49.2V73.83h-6.833V55.766zm9.566 0h6.834V73.83h-6.834V55.766zm0-3.723v-6.809h6.834v6.809h-6.834zM20.5 45.234v6.809h-6.833v-6.809H20.5zM8.2 20.724c3.015 0 5.467 2.442 5.467 5.446 0 1.772-.867 3.334-2.186 4.33l-.035.025c-.224.166-.46.308-.7.436l-.089.047a5.307 5.307 0 0 1-.719.3c-.04.014-.083.026-.125.04a5.459 5.459 0 0 1-3.228 0c-.043-.014-.084-.025-.125-.039a5.488 5.488 0 0 1-.719-.3c-.03-.014-.058-.032-.088-.047a5.527 5.527 0 0 1-.7-.436l-.02-.012c-1.326-.997-2.2-2.564-2.2-4.344 0-3.004 2.452-5.447 5.467-5.447zm2.733 58.553H5.467V33.864a8.122 8.122 0 0 0 1.394.358c.437.072.883.118 1.339.118.456 0 .902-.046 1.34-.118l.079-.012a8.143 8.143 0 0 0 1.314-.346v45.413zm2.734-24.511H20.5V73.83h-6.833V54.766zM61.5 73.83V54.766h6.833V73.83H61.5zm15.033 5.447h-5.466V33.864c.423.15.862.267 1.314.346l.08.012c.437.072.883.118 1.339.118.456 0 .902-.046 1.338-.118l.08-.012a8.122 8.122 0 0 0 1.315-.346v45.413zM77.08 30.5l-.032.024a5.262 5.262 0 0 1-.698.434c-.03.016-.06.034-.092.049a5.663 5.663 0 0 1-.717.3c-.043.013-.085.025-.127.039a5.454 5.454 0 0 1-3.227 0l-.127-.04a5.29 5.29 0 0 1-.81-.348 5.502 5.502 0 0 1-.698-.434l-.016-.011c-1.328-.994-2.202-2.563-2.202-4.343 0-3.004 2.452-5.447 5.467-5.447 3.015 0 5.467 2.443 5.467 5.447 0 1.773-.868 3.336-2.188 4.33z"/>
        <path fill="url(#b)" d="M23.125 30.578l-.64 3.806c-.087.519.12 1.042.538 1.352.42.31.973.35 1.428.105l3.356-1.797 3.355 1.797a1.331 1.331 0 0 0 1.428-.105c.418-.31.627-.833.539-1.352l-.64-3.806 2.713-2.696c.37-.367.503-.916.343-1.417-.16-.5-.584-.865-1.094-.94l-3.751-.557-1.492-3.08c.445-5.821 5.064-10.451 10.803-10.794V26.81a2.161 2.161 0 0 0-.634.589l-3.34 4.865c-.51.744-.584 1.64-.197 2.397.404.786 1.242 1.276 2.189 1.276h6.682c.946 0 1.783-.49 2.187-1.279.388-.757.314-1.653-.196-2.397l-3.342-4.865a2.156 2.156 0 0 0-.635-.587V11.253c5.17.944 9.145 5.406 9.46 10.863h-2.679c-.748 0-1.356.619-1.356 1.382v6.91c0 .764.608 1.383 1.356 1.383h8.138c.748 0 1.356-.62 1.356-1.382v-6.911c0-.763-.608-1.382-1.356-1.382h-2.747c-.325-6.983-5.502-12.678-12.172-13.657V1.382C42.725.62 42.118 0 41.37 0c-.749 0-1.356.62-1.356 1.382v6.946c-7.167.347-12.955 6.102-13.507 13.348l-1.593 3.291-3.752.556c-.51.076-.934.44-1.094.941-.16.5-.027 1.05.343 1.417l2.715 2.697zm33.163-1.551h-5.425V24.88h5.425v4.147zm-12.272 4.146h-5.293l2.646-3.853 2.647 3.853zM26.01 27.6a1.358 1.358 0 0 0 1.021-.756l.776-1.604.776 1.604c.198.408.579.69 1.02.756l1.738.257-1.256 1.248c-.32.318-.466.776-.39 1.223l.297 1.763-1.555-.832a1.338 1.338 0 0 0-1.26.001l-1.555.832.297-1.762a1.397 1.397 0 0 0-.39-1.224l-1.257-1.248 1.738-.258z"/>
    </g>
</svg>
