<svg xmlns="http://www.w3.org/2000/svg" width="24" height="21" viewBox="0 0 24 21">
    <g fill="#3FAD65" fill-rule="nonzero">
        <path d="M19.766 21.003H4.244a.343.343 0 0 1-.343-.343V7.903a.343.343 0 0 1 .686 0v12.414h14.836V7.903a.343.343 0 0 1 .686 0V20.66c0 .19-.154.343-.343.343z"/>
        <path d="M22.981 11.314a.341.341 0 0 1-.235-.093L12.004 1.077 1.264 11.22a.343.343 0 0 1-.471-.499L11.769.357a.343.343 0 0 1 .471 0l10.977 10.365a.343.343 0 0 1-.236.592z"/>
        <path d="M14.743 17.137H9.268a.343.343 0 0 1-.343-.343v-5.475c0-.19.154-.343.343-.343h5.475c.19 0 .343.154.343.343v5.475c0 .19-.154.343-.343.343zm-5.133-.686h4.79v-4.789H9.61v4.789z"/>
        <path d="M12.004 17.137a.343.343 0 0 1-.343-.343v-5.475a.343.343 0 0 1 .686 0v5.475c0 .19-.153.343-.343.343z"/>
        <path d="M14.742 14.4H9.267a.343.343 0 0 1 0-.687h5.475a.343.343 0 0 1 0 .686z"/>
    </g>
</svg>
