<svg xmlns="http://www.w3.org/2000/svg" width="14" height="18" viewBox="0 0 14 18">
    <g fill="#F5BC99" fill-rule="nonzero">
        <path d="M13.811.19a.609.609 0 0 0-.447-.19H.636A.609.609 0 0 0 .19.19.621.621 0 0 0 0 .644v16.714c0 .174.063.325.189.452S.464 18 .636 18h12.728a.608.608 0 0 0 .447-.19.622.622 0 0 0 .189-.453V.643a.621.621 0 0 0-.189-.452zm-1.084 16.524H8.91v-2.25a.311.311 0 0 0-.094-.226.305.305 0 0 0-.224-.095H5.409a.304.304 0 0 0-.224.095.31.31 0 0 0-.094.226v2.25H1.273V1.286h11.454v15.428z"/>
        <path d="M7.25 10h.5a.24.24 0 0 0 .176-.074A.24.24 0 0 0 8 9.75v-.5a.24.24 0 0 0-.074-.176A.24.24 0 0 0 7.75 9h-.5a.24.24 0 0 0-.176.074A.24.24 0 0 0 7 9.25v.5a.24.24 0 0 0 .074.176.24.24 0 0 0 .176.074zM3.25 10h.5a.24.24 0 0 0 .176-.074A.24.24 0 0 0 4 9.75v-.5a.24.24 0 0 0-.074-.176A.24.24 0 0 0 3.75 9h-.5a.24.24 0 0 0-.176.074A.24.24 0 0 0 3 9.25v.5a.24.24 0 0 0 .074.176.24.24 0 0 0 .176.074zM10.25 10h.5a.24.24 0 0 0 .176-.074A.24.24 0 0 0 11 9.75v-.5a.24.24 0 0 0-.074-.176A.24.24 0 0 0 10.75 9h-.5a.24.24 0 0 0-.176.074.24.24 0 0 0-.074.176v.5a.24.24 0 0 0 .074.176.24.24 0 0 0 .176.074zM7.25 6h.5a.24.24 0 0 0 .176-.074A.24.24 0 0 0 8 5.75v-.5a.24.24 0 0 0-.074-.176A.24.24 0 0 0 7.75 5h-.5a.24.24 0 0 0-.176.074A.24.24 0 0 0 7 5.25v.5a.24.24 0 0 0 .074.176A.24.24 0 0 0 7.25 6zM3.25 6h.5a.24.24 0 0 0 .176-.074A.24.24 0 0 0 4 5.75v-.5a.24.24 0 0 0-.074-.176A.24.24 0 0 0 3.75 5h-.5a.24.24 0 0 0-.176.074A.24.24 0 0 0 3 5.25v.5a.24.24 0 0 0 .074.176A.24.24 0 0 0 3.25 6zM10.25 6h.5a.24.24 0 0 0 .176-.074A.24.24 0 0 0 11 5.75v-.5a.24.24 0 0 0-.074-.176A.24.24 0 0 0 10.75 5h-.5a.24.24 0 0 0-.176.074.24.24 0 0 0-.074.176v.5a.24.24 0 0 0 .074.176.24.24 0 0 0 .176.074z"/>
    </g>
</svg>
