<svg xmlns="http://www.w3.org/2000/svg" width="19" height="22" viewBox="0 0 19 22">
    <g fill="#603B15" fill-rule="nonzero" stroke="#603B15" stroke-width=".673" opacity=".787">
        <path d="M17.74 20.857l-1.395-4.237a.349.349 0 0 0-.339-.265h-4.034c1.63-2.923 3.685-7.014 3.685-9.073a6.282 6.282 0 0 0-12.563 0c0 2.061 2.306 6.149 4.14 9.073h-4.49c-.16 0-.299.11-.338.265L1.01 20.857a.349.349 0 0 0 .339.434h16.053a.349.349 0 0 0 .339-.434zM9.377 1.698a5.59 5.59 0 0 1 5.583 5.584c0 2.726-4.129 9.722-5.252 11.575-1.247-1.828-5.915-8.85-5.915-11.575a5.59 5.59 0 0 1 5.584-5.584z"/>
        <path d="M11.819 6.235a2.443 2.443 0 1 0-4.886 0 2.443 2.443 0 0 0 4.886 0zM9.376 7.98a1.745 1.745 0 1 1 0-3.49 1.745 1.745 0 0 1 0 3.49z"/>
    </g>
</svg>
