<svg xmlns="http://www.w3.org/2000/svg" width="120" height="120" viewBox="0 0 134 174">
    <g fill="none" fill-rule="evenodd">
        <path fill="#FFF3DF" d="M66.891 133.865C29.948 133.865 0 103.917 0 66.975 0 30.03 29.948.082 66.891.082c36.943 0 66.891 29.948 66.891 66.891 0 36.943-29.948 66.891-66.89 66.891m0-122.064c-30.472 0-55.174 24.702-55.174 55.173 0 30.472 24.702 55.174 55.173 55.174 30.472 0 55.174-24.702 55.174-55.174 0-30.471-24.702-55.173-55.174-55.173"/>
        <path fill="#FBE3B7" d="M66.891 122.148c-30.471 0-55.173-24.702-55.173-55.174 0-30.471 24.702-55.173 55.173-55.173 30.472 0 55.174 24.702 55.174 55.173 0 30.472-24.702 55.174-55.174 55.174m0-98.645c-24.009 0-43.471 19.462-43.471 43.471 0 24.009 19.462 43.472 43.471 43.472 24.009 0 43.471-19.463 43.471-43.472S90.9 23.503 66.892 23.503"/>
        <path fill="#F6CB7E" d="M66.891 110.446c-24.009 0-43.471-19.463-43.471-43.472S42.882 23.503 66.89 23.503c24.009 0 43.471 19.462 43.471 43.471 0 24.009-19.462 43.472-43.47 43.472m0-75.493c-17.686 0-32.022 14.336-32.022 32.021 0 17.685 14.336 32.022 32.021 32.022 17.685 0 32.022-14.337 32.022-32.022S84.576 34.953 66.89 34.953"/>
        <path fill="#F0B544" d="M66.891 98.996c-17.685 0-32.021-14.337-32.021-32.022S49.206 34.953 66.89 34.953c17.685 0 32.022 14.336 32.022 32.021 0 17.685-14.337 32.022-32.022 32.022m0-50.656c-10.29 0-18.634 8.343-18.634 18.634S56.6 85.608 66.891 85.608s18.634-8.343 18.634-18.634c0-10.29-8.343-18.634-18.634-18.634"/>
        <path fill="#ECAB2C" d="M85.525 66.974c0-10.29-8.343-18.634-18.634-18.634-10.29 0-18.634 8.343-18.634 18.634S56.6 85.608 66.891 85.608s18.634-8.343 18.634-18.634"/>
        <path fill="#F3BF62" d="M60.665 73.32h-.685v-9.223h3.346c2.03 0 3.426 1.041 3.426 2.82v.026c0 1.937-1.673 2.938-3.597 2.938h-2.49v3.44m0-8.591v4.519h2.53c1.712 0 2.872-.896 2.872-2.266v-.027c0-1.462-1.133-2.226-2.793-2.226h-2.609M72.523 73.386h-.606l-4.058-9.289h.764l3.61 8.485 3.623-8.485h.725l-4.058 9.289"/>
        <g fill="#1A1919">
            <path d="M17.07 149.166c1.195 0 1.893-.714 1.893-1.646v-.03c0-1.072-.745-1.646-1.94-1.646h-1.848v3.322h1.894zm-4.286-5.48h4.44c2.593 0 4.162 1.537 4.162 3.757v.03c0 2.516-1.957 3.82-4.394 3.82h-1.817v3.26h-2.391v-10.868zM31.074 148.964c1.164 0 1.832-.62 1.832-1.537v-.03c0-1.025-.715-1.553-1.879-1.553h-2.376v3.12h2.423zm-4.814-5.279h4.969c1.382 0 2.453.389 3.167 1.103.606.605.932 1.46.932 2.484v.031c0 1.754-.947 2.857-2.33 3.37l2.656 3.88h-2.795l-2.329-3.477h-1.879v3.478h-2.39v-10.869zM49.161 149.15v-.03c0-1.864-1.366-3.416-3.291-3.416-1.926 0-3.261 1.521-3.261 3.384v.032c0 1.863 1.366 3.415 3.291 3.415 1.926 0 3.261-1.521 3.261-3.384zm-9.052 0v-.03c0-3.09 2.438-5.621 5.791-5.621 3.354 0 5.76 2.5 5.76 5.59v.03c0 3.09-2.437 5.621-5.79 5.621-3.354 0-5.76-2.5-5.76-5.59zM61.178 149.166c1.195 0 1.894-.714 1.894-1.646v-.03c0-1.072-.745-1.646-1.94-1.646h-1.848v3.322h1.894zm-4.285-5.48h4.44c2.593 0 4.161 1.537 4.161 3.757v.03c0 2.516-1.956 3.82-4.394 3.82h-1.816v3.26h-2.391v-10.868zM70.369 143.685h8.198v2.127h-5.823v2.205h5.124v2.127h-5.124v2.283h5.9v2.127H70.37v-10.869M88.69 148.964c1.164 0 1.831-.62 1.831-1.537v-.03c0-1.025-.714-1.553-1.878-1.553h-2.376v3.12h2.422zm-4.814-5.279h4.969c1.381 0 2.453.389 3.167 1.103.605.605.932 1.46.932 2.484v.031c0 1.754-.948 2.857-2.33 3.37l2.656 3.88h-2.795l-2.329-3.477h-1.879v3.478h-2.39v-10.869zM100.737 145.89H97.43v-2.205h9.005v2.205h-3.307v8.664h-2.39v-8.664M114.43 150.269l-4.176-6.584h2.795l2.593 4.363 2.64-4.363h2.716l-4.176 6.537v4.332h-2.391v-4.285M30.328 162.316h.9l4.255 10 4.27-10h.853l-4.782 10.946h-.714l-4.782-10.946M46.117 173.185h.808v-10.869h-.808zM58.12 172.44c1.862 0 3.042-.854 3.042-2.22v-.032c0-1.335-1.164-2.112-3.307-2.112h-3.68v4.363h3.944zm-.358-5.109c1.63 0 2.795-.792 2.795-2.236v-.03c0-1.196-.978-2.004-2.717-2.004h-3.665v4.27h3.587zm-4.394-5.015h4.487c1.227 0 2.22.357 2.826.963.45.45.699 1.025.699 1.708v.03c0 1.476-.963 2.221-1.848 2.578 1.304.342 2.453 1.087 2.453 2.593v.031c0 1.817-1.552 2.966-3.897 2.966h-4.72v-10.869zM67.683 162.316h7.732v.745H68.49v4.27h6.226v.745H68.49v4.363h7.003v.746h-7.81v-10.869M81.19 162.316h7.732v.745h-6.925v4.27h6.226v.745h-6.226v4.363H89v.746h-7.81v-10.869M94.527 170.996c1.195 1.102 2.298 1.614 3.897 1.614 1.63 0 2.748-.916 2.748-2.158v-.03c0-1.15-.606-1.818-3.074-2.314-2.609-.528-3.665-1.413-3.665-3.06v-.03c0-1.615 1.475-2.857 3.494-2.857 1.583 0 2.624.435 3.726 1.32l-.512.636c-1.025-.885-2.05-1.226-3.245-1.226-1.6 0-2.655.916-2.655 2.05v.03c0 1.15.59 1.848 3.167 2.376 2.515.512 3.571 1.413 3.571 2.996v.032c0 1.754-1.506 2.965-3.602 2.965-1.739 0-3.074-.575-4.378-1.739l.528-.605z"/>
        </g>
    </g>
</svg>
