<svg xmlns="http://www.w3.org/2000/svg" width="148" height="67" viewBox="0 0 148 67">
    <g fill="none" fill-rule="evenodd">
        <path fill="#FFF3DF" d="M33.446 66.891C14.974 66.891 0 51.917 0 33.446 0 14.974 14.974 0 33.446 0 51.917 0 66.89 14.974 66.89 33.446c0 18.471-14.974 33.445-33.445 33.445m0-61.032c-15.236 0-27.587 12.35-27.587 27.587 0 15.235 12.35 27.586 27.587 27.586 15.235 0 27.586-12.35 27.586-27.586 0-15.236-12.35-27.587-27.586-27.587"/>
        <path fill="#FBE3B7" d="M33.446 61.032c-15.236 0-27.587-12.35-27.587-27.586 0-15.236 12.35-27.587 27.587-27.587 15.235 0 27.586 12.35 27.586 27.587 0 15.235-12.35 27.586-27.586 27.586m0-49.322c-12.005 0-21.736 9.731-21.736 21.736 0 12.004 9.731 21.735 21.736 21.735 12.004 0 21.735-9.731 21.735-21.735 0-12.005-9.731-21.736-21.735-21.736"/>
        <path fill="#F6CB7E" d="M33.446 55.181c-12.005 0-21.736-9.731-21.736-21.735 0-12.005 9.731-21.736 21.736-21.736 12.004 0 21.735 9.731 21.735 21.736 0 12.004-9.731 21.735-21.735 21.735m0-37.746c-8.843 0-16.011 7.168-16.011 16.01 0 8.843 7.168 16.011 16.01 16.011 8.843 0 16.011-7.168 16.011-16.01 0-8.843-7.168-16.011-16.01-16.011"/>
        <path fill="#F0B544" d="M33.446 49.456c-8.843 0-16.011-7.168-16.011-16.01 0-8.843 7.168-16.011 16.01-16.011 8.843 0 16.011 7.168 16.011 16.01 0 8.843-7.168 16.011-16.01 16.011m0-25.327a9.317 9.317 0 1 0 0 18.634 9.317 9.317 0 0 0 0-18.634"/>
        <path fill="#ECAB2C" d="M42.762 33.446a9.317 9.317 0 1 0-18.633 0 9.317 9.317 0 0 0 18.633 0"/>
        <path fill="#F3BF62" d="M30.333 36.619h-.343v-4.612h1.673c1.015 0 1.713.52 1.713 1.41v.013c0 .969-.837 1.47-1.798 1.47h-1.245v1.719m0-4.296v2.26h1.264c.857 0 1.436-.448 1.436-1.133v-.013c0-.732-.566-1.114-1.396-1.114h-1.304M36.262 36.652h-.303l-2.03-4.645h.383l1.805 4.243 1.811-4.243h.363l-2.03 4.645"/>
        <g fill="#1A1919">
            <path d="M79.785 27.945c.778 0 1.232-.464 1.232-1.07v-.02c0-.697-.485-1.07-1.262-1.07h-1.2v2.16h1.23zM77 24.382h2.886c1.686 0 2.705 1 2.705 2.443v.02c0 1.635-1.272 2.482-2.856 2.482h-1.18v2.12H77v-7.065zM88.888 27.814c.757 0 1.191-.404 1.191-1v-.02c0-.666-.464-1.009-1.221-1.009h-1.544v2.029h1.574zm-3.128-3.432h3.23c.897 0 1.594.253 2.058.717.394.393.605.948.605 1.614v.02c0 1.141-.615 1.858-1.513 2.19l1.725 2.524H90.05l-1.514-2.261h-1.221v2.26H85.76v-7.064zM100.645 27.935v-.02c0-1.212-.888-2.22-2.14-2.22-1.25 0-2.119.988-2.119 2.2v.02c0 1.21.888 2.22 2.14 2.22 1.251 0 2.12-.99 2.12-2.2zm-5.884 0v-.02c0-2.009 1.585-3.654 3.765-3.654s3.744 1.625 3.744 3.633v.02c0 2.009-1.585 3.654-3.764 3.654-2.18 0-3.745-1.625-3.745-3.633zM108.456 27.945c.777 0 1.231-.464 1.231-1.07v-.02c0-.697-.484-1.07-1.261-1.07h-1.201v2.16h1.23zm-2.785-3.563h2.886c1.685 0 2.705 1 2.705 2.443v.02c0 1.635-1.272 2.482-2.857 2.482h-1.18v2.12h-1.554v-7.065zM114.43 24.382h5.329v1.383h-3.785v1.433h3.33v1.383h-3.33v1.483h3.835v1.383h-5.379v-7.065M126.338 27.814c.757 0 1.191-.404 1.191-1v-.02c0-.666-.464-1.009-1.22-1.009h-1.545v2.029h1.574zm-3.128-3.432h3.23c.898 0 1.594.253 2.058.717.394.393.606.948.606 1.614v.02c0 1.141-.616 1.858-1.514 2.19l1.726 2.524h-1.817l-1.514-2.261h-1.22v2.26h-1.555v-7.064zM134.17 25.815h-2.15v-1.433h5.853v1.433h-2.15v5.632h-1.553v-5.632M143.07 28.661l-2.714-4.279h1.816l1.686 2.836 1.715-2.836h1.766l-2.714 4.249v2.816h-1.555V28.66M88.404 36.492h.585l2.765 6.5 2.776-6.5h.555l-3.109 7.115h-.464l-3.108-7.115M98.667 43.557h.525v-7.065h-.525zM106.468 43.072c1.211 0 1.978-.555 1.978-1.443v-.02c0-.868-.757-1.373-2.15-1.373h-2.392v2.836h2.564zm-.232-3.32c1.06 0 1.816-.515 1.816-1.453v-.02c0-.777-.635-1.302-1.766-1.302h-2.382v2.775h2.332zm-2.856-3.26h2.916c.798 0 1.444.232 1.837.626.293.293.454.666.454 1.11v.02c0 .96-.625 1.443-1.2 1.676.847.222 1.594.706 1.594 1.685v.02c0 1.181-1.01 1.928-2.533 1.928h-3.068v-7.065zM112.684 36.492h5.026v.485h-4.501v2.775h4.047v.484h-4.047v2.836h4.552v.485h-5.077v-7.065M121.464 36.492h5.026v.485h-4.501v2.775h4.047v.484h-4.047v2.836h4.551v.485h-5.076v-7.065M130.133 42.134c.777.716 1.493 1.05 2.533 1.05 1.06 0 1.786-.596 1.786-1.403v-.02c0-.747-.393-1.181-1.998-1.504-1.696-.343-2.382-.919-2.382-1.988v-.02c0-1.05.959-1.858 2.27-1.858 1.03 0 1.706.283 2.423.858l-.333.414c-.666-.575-1.332-.797-2.11-.797-1.039 0-1.725.595-1.725 1.332v.02c0 .747.383 1.201 2.059 1.544 1.635.333 2.32.918 2.32 1.948v.02c0 1.14-.978 1.928-2.34 1.928-1.13 0-1.999-.374-2.847-1.13l.344-.394z"/>
        </g>
    </g>
</svg>
