<svg xmlns="http://www.w3.org/2000/svg" width="61" height="82" viewBox="0 0 61 82">
    <defs>
        <linearGradient id="a" x1="77.67%" x2="21.608%" y1="0%" y2="103.114%">
            <stop offset="0%" stop-color="#B65298"/>
            <stop offset="100%" stop-color="#EE7946"/>
        </linearGradient>
    </defs>
    <path fill="none" fill-rule="nonzero" stroke="url(#a)" stroke-width="4" d="M2 2h57v.23l.834-.23H61l-.252-.252.515-.142h-.657L59 0v1.606H2V0L0 2h1.611v77.9H0l1.611 1.612v.389l.195-.195.194.195v-.389l1.611-1.611H2V2zm57 66.299V80h-1.611L59 81.611V82l.195-.195.194.195v-.389L61 80h-1.611V68.299H59zm-5.647 11.149V82l2.478-1.942-2.478-.61zM24.95 72.454l-1.522-.374 1.522 1.942v-1.568zm0-60.838v-1.523L23.48 12.02l1.469-.405zm30.44-3.703v.036h1.964v-.036l-.982-.982-.982.982zm0 3.474v.036l.982.982.982-.982v-.036H55.39zm4-7.438v11.438h-6.036V3.949h6.036zM28.661 47.118c-2.417 0-4.138-2.238-4.138-4.78 0-2.541 1.721-4.779 4.138-4.779 2.418 0 4.14 2.238 4.14 4.78 0 2.541-1.722 4.779-4.14 4.779zM57.354 59.08v-.035h-1.965v.035l.982.982.983-.982zm0-34.44v-.034l-.983-.983-.982.983v.035h1.965zm-4 38.405V20.64h6.035v42.404h-6.035z"/>
</svg>
