<svg xmlns="http://www.w3.org/2000/svg" width="73" height="81" viewBox="0 0 73 81">
    <defs>
        <linearGradient id="a" x1="90.611%" x2="8.328%" y1="0%" y2="103.114%">
            <stop offset="0%" stop-color="#B65298"/>
            <stop offset="100%" stop-color="#EE7946"/>
        </linearGradient>
    </defs>
    <path fill="url(#a)" fill-rule="nonzero" d="M72.543 67.24l-4.348-3.811a4.933 4.933 0 0 0 .586-2.345 4.932 4.932 0 0 0-1.46-3.515 4.959 4.959 0 0 0-3.525-1.456c-.057 0-.112.002-.168.004.001-.056.004-.112.004-.168a4.933 4.933 0 0 0-1.46-3.516 4.96 4.96 0 0 0-3.526-1.456c-1.214 0-2.36.43-3.267 1.218l-3.302-2.894a8.735 8.735 0 0 1-2.923-7.561l1.055-9.21a24.05 24.05 0 0 0-1.919-12.5L40.062 1.528a2.557 2.557 0 0 0-2.887-1.47c-.249.052-.48.14-.694.253a2.602 2.602 0 0 0-.692-.254 2.548 2.548 0 0 0-2.874 1.473l-8.205 18.5a24.05 24.05 0 0 0-1.919 12.5l1.055 9.21a8.735 8.735 0 0 1-2.923 7.56l-3.758 3.294-.162-.161a4.96 4.96 0 0 0-3.525-1.456 4.96 4.96 0 0 0-3.526 1.456 4.933 4.933 0 0 0-1.46 3.515c0 .057.002.112.004.168-.056-.001-.112-.004-.168-.004a4.96 4.96 0 0 0-3.525 1.456 4.932 4.932 0 0 0-1.46 3.516c0 1.031.314 2.014.895 2.842L.457 67.241a1.342 1.342 0 1 0 .888 2.347c.315 0 .631-.11.887-.334l3.852-3.377 8.977 8.952-3.312 3.973a1.342 1.342 0 1 0 2.067 1.714l3.267-3.919c.745.425 1.59.653 2.47.653a4.96 4.96 0 0 0 3.526-1.456 4.95 4.95 0 0 0 1.453-3.686c.057.002.114.004.17.004a4.977 4.977 0 0 0 3.526-1.454 4.933 4.933 0 0 0 1.46-3.515 4.932 4.932 0 0 0-1.46-3.516l-.181-.18c.038-.037.075-.076.11-.117l5.726-6.87a16.873 16.873 0 0 0 2.6-4.285 17.04 17.04 0 0 0 2.611 4.284l5.448 6.523-.647.645a4.932 4.932 0 0 0-1.46 3.516 4.977 4.977 0 0 0 4.986 4.97c.056 0 .113-.003.17-.005a4.95 4.95 0 0 0 1.454 3.686 4.977 4.977 0 0 0 3.525 1.454c1.067 0 2.134-.34 3.024-1.018l3.54 4.282a1.343 1.343 0 0 0 1.892.182 1.338 1.338 0 0 0 .182-1.887l-3.676-4.446 8.917-8.892 4.32 3.786a1.342 1.342 0 0 0 1.897-.122 1.338 1.338 0 0 0-.123-1.892zm-51.365 6.658a2.286 2.286 0 0 1-1.625.671c-.613 0-1.19-.238-1.624-.67v-.001L6.703 62.704a2.273 2.273 0 0 1-.672-1.62c0-.612.239-1.187.672-1.62a2.286 2.286 0 0 1 1.625-.671c.613 0 1.19.238 1.624.671l6.735 6.716 4.49 4.478.002.001a2.29 2.29 0 0 1-.001 3.239zm5.15-5.136a2.304 2.304 0 0 1-3.25 0L11.854 57.568a2.273 2.273 0 0 1-.673-1.62c0-.611.24-1.187.673-1.62a2.285 2.285 0 0 1 1.625-.67c.613 0 1.19.238 1.624.67l11.226 11.195c.433.432.672 1.008.672 1.62 0 .612-.239 1.187-.673 1.62zm8.805-54.84c-3.42 3.763-5.484 8.086-5.97 12.539a19.738 19.738 0 0 0-.108 2.684 1.342 1.342 0 0 0 1.382 1.303 1.342 1.342 0 0 0 1.306-1.377c-.022-.776.01-1.556.093-2.32.37-3.399 1.747-6.275 3.297-8.526v27.318c0 3.372-1.178 6.64-3.317 9.201l-5.671 6.805-7.075-7.055 3.628-3.18a11.415 11.415 0 0 0 3.82-9.879l-1.056-9.209a21.375 21.375 0 0 1 1.706-11.11l7.965-17.96v10.766zm6.027 40.821a14.381 14.381 0 0 1-3.338-9.2V18.16c1.568 2.26 2.967 5.159 3.342 8.59.084.765.115 1.546.093 2.32a1.342 1.342 0 0 0 1.344 1.378c.725 0 1.323-.576 1.343-1.303.026-.896-.01-1.8-.107-2.685-.488-4.472-2.568-8.812-6.015-12.587V3.104l8.01 18.013a21.373 21.373 0 0 1 1.705 11.109l-1.054 9.209a11.413 11.413 0 0 0 3.819 9.878l3.162 2.772-7.013 6.993-5.29-6.335zm4.636 14.02a2.274 2.274 0 0 1-.673-1.62c0-.612.24-1.188.673-1.62l11.225-11.195a2.285 2.285 0 0 1 1.625-.67c.613 0 1.19.238 1.624.67.434.433.673 1.009.673 1.62 0 .612-.239 1.188-.673 1.62L49.045 68.763a2.305 2.305 0 0 1-3.249 0zm19.624-6.06s-11.012 10.96-11.254 11.22c-.835.898-2.334.859-3.22-.025a2.289 2.289 0 0 1 0-3.24l11.225-11.194a2.293 2.293 0 0 1 1.625-.67 2.293 2.293 0 0 1 2.297 2.29c0 .612-.24 1.187-.673 1.62z"/>
</svg>
