<svg xmlns="http://www.w3.org/2000/svg" width="33" height="33" viewBox="0 0 33 33">
    <path fill="none" fill-rule="nonzero" stroke="#4A4A4A" stroke-width="1.166" d="M19.096 30.697v.017a3.086 3.086 0 0 1 1.894-2.945c1.122-.461 2.605-.12 3.434.782a1.205 1.205 0 0 0 1.627.141l.111-.084a16.52 16.52 0 0 0 2.443-2.43 1.208 1.208 0 0 0-.13-1.644 3.052 3.052 0 0 1-.773-3.452c.465-1.118 1.59-1.864 2.846-1.871l.166.007c.62.035 1.187-.443 1.253-.996v-.003l.003-.065a16.523 16.523 0 0 0-.006-3.591c-.064-.59-.686-1.064-1.329-1.064a3.084 3.084 0 0 1-2.87-1.896 3.083 3.083 0 0 1 .777-3.423 1.217 1.217 0 0 0 .132-1.627l.004-.003-.001-.003-.006.004a15.57 15.57 0 0 0-2.494-2.511 1.2 1.2 0 0 0-1.643.133c-.822.912-2.316 1.25-3.45.778a3.074 3.074 0 0 1-1.869-3.003A1.206 1.206 0 0 0 18.153.686 15.694 15.694 0 0 0 14.615.68a1.214 1.214 0 0 0-1.072 1.237 3.058 3.058 0 0 1-1.889 2.944c-1.127.46-2.605.12-3.425-.782a1.221 1.221 0 0 0-1.633-.134 15.966 15.966 0 0 0-2.551 2.517 1.194 1.194 0 0 0 .128 1.636 3.072 3.072 0 0 1 .783 3.467c-.483 1.138-1.671 1.86-3.024 1.868h-.04c-.637 0-1.132.435-1.204 1.057a15.676 15.676 0 0 0-.006 3.577c.064.59.693 1.064 1.349 1.064H2.04c1.225-.03 2.364.736 2.833 1.899.488 1.179.174 2.55-.773 3.424a1.21 1.21 0 0 0-.13 1.627c.739.942 1.576 1.79 2.49 2.52a1.204 1.204 0 0 0 1.64-.131c.83-.92 2.318-1.256 3.449-.778a3.08 3.08 0 0 1 1.875 3.003 1.206 1.206 0 0 0 1.06 1.262c.666.072 1.26.108 1.82.108.588 0 1.142-.035 1.725-.115.615-.062 1.085-.602 1.067-1.248V30.7zm7.295-2.123h.013c-.17.042-.251.062-.302.084.055-.026.133-.046.289-.084zm-.289.084a.272.272 0 0 0-.103.083.29.29 0 0 1 .11-.088zM16.35 23c-3.663 0-6.643-2.982-6.643-6.646 0-3.663 2.98-6.645 6.643-6.645 3.665 0 6.65 2.983 6.65 6.647C22.992 20.022 20.01 23 16.35 23zm0-10.27a3.63 3.63 0 0 0-3.621 3.624 3.63 3.63 0 0 0 3.621 3.626 3.639 3.639 0 0 0 3.629-3.626 3.63 3.63 0 0 0-3.629-3.625z"/>
</svg>
