<svg xmlns="http://www.w3.org/2000/svg" width="115" height="81" viewBox="0 0 115 81">
    <defs>
        <linearGradient id="a" x1="100%" x2="-1.306%" y1="25.195%" y2="76.35%">
            <stop offset="0%" stop-color="#B65298"/>
            <stop offset="100%" stop-color="#EE7946"/>
        </linearGradient>
    </defs>
    <path fill="url(#a)" fill-rule="nonzero" d="M162.317 87.612c.93 0 1.683-.755 1.683-1.686V74.39a4.058 4.058 0 0 0-4.051-4.057h-1.342v-2.704c0-.77-.088-1.52-.248-2.242a6.732 6.732 0 0 0 2.79-2.072 6.714 6.714 0 0 0 1.321-5.605 6.705 6.705 0 0 0-3.492-4.576 35.965 35.965 0 0 0-4.492-1.94V35.9c0-7.113-5.779-12.9-12.882-12.9H105.49c-.93 0-1.683.755-1.683 1.686 0 .93.753 1.685 1.683 1.685h36.115c5.246 0 9.515 4.275 9.515 9.529v14.28a36.183 36.183 0 0 0-8.431-1.07v-4.66c0-3.732-3.032-6.767-6.758-6.767h-21.158c-3.726 0-6.758 3.035-6.758 6.767v4.655h-3.03V44.45c0-3.732-3.031-6.767-6.757-6.767H77.07c-3.727 0-6.758 3.035-6.758 6.767v4.66c-2.84.022-5.675.385-8.431 1.07V35.9c0-5.254 4.268-9.529 9.515-9.529h36.352a1.684 1.684 0 1 0 0-3.371H71.395c-7.103 0-12.881 5.787-12.881 12.9v15.294a35.965 35.965 0 0 0-4.493 1.94 6.705 6.705 0 0 0-3.491 4.576 6.714 6.714 0 0 0 1.32 5.605 6.732 6.732 0 0 0 2.79 2.072c-.16.722-.248 1.472-.248 2.242v2.704h-1.34A4.058 4.058 0 0 0 49 74.39v15.18a4.058 4.058 0 0 0 4.051 4.057h5.195v3.724c0 3.666 2.978 6.649 6.64 6.649h3.516c.93 0 1.683-.755 1.683-1.686 0-.93-.754-1.685-1.683-1.685h-3.516a3.28 3.28 0 0 1-3.274-3.278v-3.724h89.776v3.724a3.28 3.28 0 0 1-3.274 3.278H66.201a1.684 1.684 0 1 0 0 3.371h81.913c3.662 0 6.64-2.983 6.64-6.65v-3.723h5.195A4.058 4.058 0 0 0 164 89.57v-6.059a1.684 1.684 0 1 0-3.367 0v6.06a.686.686 0 0 1-.684.685H53.05a.686.686 0 0 1-.684-.686V74.39c0-.378.307-.686.684-.686h1.342v10.019c0 1.558.798 2.966 2.136 3.766a4.306 4.306 0 0 0 4.289.102c1.042-.562 1.855-1.241 2.64-1.898 1.5-1.254 2.684-2.244 5.225-2.244 2.542 0 3.726.99 5.225 2.244 1.697 1.419 3.62 3.027 7.382 3.027 3.762 0 5.685-1.608 7.382-3.027 1.5-1.254 2.683-2.244 5.224-2.244 2.54 0 3.725.99 5.224 2.244 1.697 1.419 3.62 3.027 7.382 3.027 3.762 0 5.685-1.608 7.382-3.027 1.499-1.254 2.683-2.244 5.224-2.244 2.54 0 3.724.99 5.223 2.244 1.697 1.419 3.62 3.027 7.382 3.027 3.762 0 5.685-1.608 7.382-3.027 1.499-1.254 2.683-2.244 5.224-2.244 2.54 0 3.725.99 5.223 2.244.786.657 1.598 1.335 2.64 1.897a4.306 4.306 0 0 0 4.289-.101 4.354 4.354 0 0 0 2.136-3.767V73.704h1.342c.377 0 .684.307.684.685v11.537c0 .931.754 1.686 1.684 1.686zM111.38 44.45a3.397 3.397 0 0 1 3.392-3.396h21.158a3.397 3.397 0 0 1 3.39 3.396v4.655h-27.94V44.45zM77.07 41.054h21.158a3.397 3.397 0 0 1 3.392 3.396v4.655H73.678V44.45a3.397 3.397 0 0 1 3.391-3.396zm78.172 42.668c0 .52-.347.784-.497.873a.966.966 0 0 1-.967.026c-.742-.4-1.39-.941-2.076-1.516-1.697-1.419-3.62-3.027-7.382-3.027-3.762 0-5.685 1.608-7.382 3.027-1.499 1.254-2.683 2.244-5.224 2.244-2.54 0-3.725-.99-5.224-2.244-1.696-1.419-3.62-3.027-7.381-3.027-3.762 0-5.685 1.608-7.382 3.027-1.499 1.254-2.683 2.244-5.224 2.244-2.54 0-3.725-.99-5.224-2.244-1.696-1.419-3.62-3.027-7.382-3.027-3.761 0-5.685 1.608-7.382 3.027-1.498 1.254-2.683 2.244-5.223 2.244-2.542 0-3.726-.99-5.225-2.244-1.697-1.419-3.62-3.027-7.383-3.027-3.762 0-5.686 1.608-7.383 3.027-.686.575-1.335 1.117-2.077 1.516a.966.966 0 0 1-.967-.025 1.002 1.002 0 0 1-.497-.873V67.63c0-.636.087-1.252.248-1.838a6.764 6.764 0 0 0 2.439-.837 14.443 14.443 0 0 1 7.18-1.915h77.748c2.516 0 4.999.662 7.18 1.915.775.445 1.602.72 2.436.836.16.587.25 1.202.25 1.839v16.093zm-1.012-21.693a17.808 17.808 0 0 0-8.855-2.361H67.626a17.81 17.81 0 0 0-8.855 2.361 3.334 3.334 0 0 1-4.29-.818 3.35 3.35 0 0 1-.659-2.797c.211-.988.846-1.821 1.743-2.284a32.902 32.902 0 0 1 15.034-3.654H142.4a32.903 32.903 0 0 1 15.034 3.654 3.346 3.346 0 0 1 1.743 2.284c.21.988-.03 2.008-.66 2.797a3.334 3.334 0 0 1-4.29.818z" transform="translate(-49 -23)"/>
</svg>
