<svg xmlns="http://www.w3.org/2000/svg" width="105" height="82" viewBox="0 0 105 82">
    <defs>
        <linearGradient id="a" x1="100%" x2="-1.306%" y1="22.565%" y2="79.144%">
            <stop offset="0%" stop-color="#B65298"/>
            <stop offset="100%" stop-color="#EE7946"/>
        </linearGradient>
        <linearGradient id="b" x1="55.83%" x2="44.018%" y1="0%" y2="103.114%">
            <stop offset="0%" stop-color="#B65298"/>
            <stop offset="100%" stop-color="#EE7946"/>
        </linearGradient>
    </defs>
    <g fill="none" fill-rule="nonzero">
        <path fill="url(#a)" d="M72.531 35.332a8.47 8.47 0 0 0-3.964.976V27.57A5.574 5.574 0 0 0 63 22H18a5.574 5.574 0 0 0-5.566 5.57v8.738a8.476 8.476 0 0 0-3.965-.976C3.799 35.332 0 39.134 0 43.806c0 3.378 2.042 6.41 5.043 7.748v28.393C5.043 81.08 5.96 82 7.095 82h10.668c1.133 0 2.052-.92 2.052-2.053v-5.295h50.942a2.053 2.053 0 0 0 0-4.106H9.147v-6.593h62.706v6.593h-12.55a2.053 2.053 0 0 0 0 4.106h1.883v5.295c0 1.133.918 2.053 2.052 2.053h10.667c1.134 0 2.052-.92 2.052-2.053V51.554c3-1.338 5.043-4.37 5.043-7.748 0-4.672-3.799-8.474-8.469-8.474zM16.538 27.57c0-.807.656-1.463 1.462-1.463h45c.806 0 1.463.656 1.463 1.463V50.5a8.728 8.728 0 0 0-4.676-1.353H21.214a8.724 8.724 0 0 0-4.676 1.352V27.57zm-.827 47.082v3.241H9.147v-3.24h6.564zm-8.179-26.58a4.388 4.388 0 0 1-3.428-4.266 4.37 4.37 0 0 1 4.365-4.367 4.34 4.34 0 0 1 3.965 2.541v17.867H9.147v-9.77c0-.964-.672-1.8-1.615-2.006zm9.006 9.86a4.682 4.682 0 0 1 4.676-4.678h38.573a4.683 4.683 0 0 1 4.676 4.678v1.915H16.538v-1.915zm55.315 19.961H65.29v-3.24h6.563v3.24zm1.615-29.822a2.054 2.054 0 0 0-1.615 2.007v9.769h-3.286V41.98a4.337 4.337 0 0 1 3.964-2.542 4.371 4.371 0 0 1 4.365 4.367c0 2.038-1.441 3.832-3.428 4.265z"/>
        <path fill="url(#b)" d="M102.917 1.868A2.07 2.07 0 0 0 100.853 0H81.147a2.07 2.07 0 0 0-2.064 1.868L77.01 23.386a2.057 2.057 0 0 0 .529 1.585c.393.43.95.676 1.533.676h9.86c-.003.045-.005.09-.005.135v44.89a14.177 14.177 0 0 0-10.27 7.041l-.684 1.211c-.361.64-.354 1.421.018 2.054A2.073 2.073 0 0 0 79.78 82h22.44c.737 0 1.418-.389 1.79-1.022a2.056 2.056 0 0 0 .017-2.054l-.683-1.21a14.179 14.179 0 0 0-10.272-7.043V25.782c0-.046-.001-.09-.004-.135h1.797l.083-.46a2.069 2.069 0 0 0 2.072 2.041h.023a2.068 2.068 0 0 0 2.05-2.087l-.082.506h3.917c.583 0 1.141-.245 1.534-.676a2.06 2.06 0 0 0 .528-1.585l-2.073-21.518zM98.372 77.87H83.629a10.046 10.046 0 0 1 7.37-3.224 10.05 10.05 0 0 1 7.373 3.224zM81.354 21.518l1.676-17.39h15.94l1.676 17.39H81.354z"/>
    </g>
</svg>
