<svg xmlns="http://www.w3.org/2000/svg" width="82" height="82" viewBox="0 0 82 82">
    <defs>
        <linearGradient id="a" x1="100%" x2="-1.306%" y1="0%" y2="103.114%">
            <stop offset="0%" stop-color="#B65298"/>
            <stop offset="100%" stop-color="#EE7946"/>
        </linearGradient>
    </defs>
    <path fill="url(#a)" fill-rule="nonzero" d="M80.217 0h-21.39c-.987 0-1.784.799-1.784 1.783v8.913H48.13c-.42 0-.83.15-1.151.422L.63 50.336c-.4.338-.631.836-.631 1.36v28.521C0 81.201.797 82 1.783 82h78.434c.986 0 1.783-.799 1.783-1.783V1.783C82 .799 81.203 0 80.217 0zm-33.87 16.322l2.436-2.061h8.26v17.826H46.348V16.322zm-14.26 12.066l10.696-9.05v23.445H32.087V28.388zm-14.26 12.068l10.695-9.05V53.478H17.826V40.456zM3.564 52.523l10.696-9.05V55.26c0 .02.01.036.01.055 0 .02-.01.038-.01.057v8.8H3.565v-11.65zm74.87 25.912H3.565V67.739h12.478c.986 0 1.783-.798 1.783-1.782v-8.914h12.478c.986 0 1.783-.798 1.783-1.782v-8.913h12.478c.986 0 1.783-.799 1.783-1.783v-8.913h12.478c.986 0 1.783-.798 1.783-1.782v-8.913h17.826v53.478zm0-57.044H60.609v-10h17.826v10zm0-9.826H60.609v-8h17.826v8z"/>
</svg>
