<svg xmlns="http://www.w3.org/2000/svg" width="86" height="81" viewBox="0 0 86 81">
    <defs>
        <linearGradient id="a" x1="100%" x2="-1.306%" y1="5.645%" y2="97.118%">
            <stop offset="0%" stop-color="#B65298"/>
            <stop offset="100%" stop-color="#EE7946"/>
        </linearGradient>
    </defs>
    <path fill="url(#a)" fill-rule="nonzero" d="M84.32 77.639h-3.695v-5.041a1.68 1.68 0 0 0-1.68-1.681h-1.68V42.349c0-2.78-2.26-5.042-5.038-5.042H60.469V12.1a1.68 1.68 0 0 0-1.68-1.68H51.4V5.377a1.68 1.68 0 0 0-1.68-1.68H36.28a1.68 1.68 0 0 0-1.68 1.68v5.041H16.798V1.68a1.68 1.68 0 1 0-3.36 0v2.017h-3.359V1.68a1.68 1.68 0 1 0-3.36 0v8.74H1.68A1.68 1.68 0 0 0 0 12.1v67.22C0 80.247.752 81 1.68 81h82.64a1.68 1.68 0 0 0 0-3.361zm-77.601 0h-3.36V13.78h3.36V77.64zm6.718 0h-3.359v-3.361h3.36v3.361zm0-6.722h-3.359v-3.361h3.36v3.361zm0-6.722h-3.359v-3.361h3.36v3.361zm0-6.722h-3.359v-3.361h3.36v3.361zm0-6.722h-3.359V47.39h3.36v3.361zm0-6.722h-3.359v-3.361h3.36v3.361zm0-6.722h-3.359v-3.36h3.36v3.36zm0-6.722h-3.359v-3.36h3.36v3.36zm0-6.722h-3.359v-3.36h3.36v3.36zm0-6.722h-3.359v-3.36h3.36v3.36zm0-6.722h-3.359V7.06h3.36v3.36zm24.524-3.36h10.078v3.36H37.961V7.06zm19.148 70.58H16.797V13.78h40.312V77.64zm3.36-36.971h11.758c.926 0 1.68.754 1.68 1.68v28.569h-3.36V45.71a1.68 1.68 0 0 0-1.68-1.681H60.47v-3.361zm3.36 31.93v5.041h-3.36V47.39h6.718v23.527h-1.68a1.68 1.68 0 0 0-1.679 1.68zm13.437 5.041H67.187v-3.361h10.079v3.361z"/>
</svg>
