<?xml version="1.0" standalone="no"?>
<!DOCTYPE svg PUBLIC "-//W3C//DTD SVG 20010904//EN"
 "http://www.w3.org/TR/2001/REC-SVG-20010904/DTD/svg10.dtd">
<svg version="1.0" xmlns="http://www.w3.org/2000/svg"
 width="300.000000pt" height="71.000000pt" viewBox="0 0 300.000000 71.000000"
 preserveAspectRatio="xMidYMid meet">
<metadata>
Created by potrace 1.16, written by Peter Selinger 2001-2019
</metadata>
<g transform="translate(0.000000,71.000000) scale(0.100000,-0.100000)"
fill="#000000" stroke="none">
<path d="M197 658 c-14 -29 -50 -84 -81 -123 -56 -69 -87 -118 -100 -162 -9
-28 9 -31 37 -6 18 17 20 16 60 -26 l41 -44 65 69 c35 38 61 63 56 55 -5 -9 2
-7 17 5 14 10 23 23 20 28 -3 5 -1 6 4 3 5 -3 21 3 34 13 l24 18 -46 59 c-48
62 -88 129 -88 150 0 28 -20 10 -43 -39z"/>
<path d="M809 636 c-186 -29 -330 -100 -463 -231 -42 -40 -76 -71 -76 -68 0 3
-6 0 -14 -7 -8 -6 -13 -17 -10 -24 3 -7 -2 -19 -11 -26 -13 -11 -15 -10 -9 6
8 20 6 19 -16 -10 -12 -16 -12 -18 -1 -12 9 6 12 4 9 -5 -3 -8 -10 -14 -16
-14 -5 0 -14 -4 -19 -9 -5 -5 -2 -6 6 -1 9 5 12 3 9 -6 -3 -8 -10 -13 -16 -12
-6 2 -9 -4 -6 -12 7 -16 -21 -22 -30 -6 -7 11 -124 81 -136 81 -19 0 25 -95
61 -131 46 -46 102 -63 182 -56 70 6 116 34 157 96 26 38 30 54 30 111 0 37
-7 84 -15 103 -15 36 -15 36 18 60 111 84 225 128 377 147 213 26 453 -24 682
-141 93 -48 124 -72 63 -49 -39 15 -92 2 -115 -27 -37 -48 -19 -100 46 -135
58 -30 62 -62 7 -56 -21 3 -46 8 -55 12 -15 7 -18 3 -18 -27 0 -41 11 -47 79
-47 66 0 101 28 101 79 0 41 -21 66 -77 95 -43 22 -44 49 -3 48 3 0 19 -3 35
-6 27 -6 32 -3 41 21 10 27 11 26 52 -54 33 -65 42 -94 42 -133 l0 -50 35 0
35 0 0 59 c0 51 6 69 40 130 22 39 40 75 40 81 0 5 -15 10 -33 10 -29 0 -35
-5 -59 -52 l-27 -51 -26 55 c-23 49 -34 60 -98 96 -259 147 -543 207 -798 168z"/>
<path d="M1023 420 c-62 -14 -95 -64 -95 -141 1 -89 48 -139 132 -139 86 0
130 49 130 142 0 105 -68 161 -167 138z m61 -61 c38 -18 50 -95 20 -137 -35
-50 -104 -14 -104 55 0 41 18 81 39 86 9 3 17 5 18 6 1 0 13 -4 27 -10z"/>
<path d="M1913 415 c-80 -34 -66 -118 29 -166 21 -11 37 -25 35 -32 -4 -13
-72 -15 -99 -3 -15 7 -18 3 -18 -27 0 -41 11 -47 79 -47 66 0 101 28 101 79 0
41 -21 66 -77 95 -57 29 -38 61 26 44 25 -7 36 -6 42 4 18 28 9 47 -28 57 -47
13 -51 13 -90 -4z"/>
<path d="M2870 412 c-73 -36 -61 -112 26 -158 50 -26 52 -49 4 -49 -19 1 -45
4 -57 9 -21 7 -23 4 -23 -27 0 -41 11 -47 79 -47 34 0 56 6 75 21 23 18 27 27
24 68 -3 44 -5 47 -50 71 -60 33 -63 36 -49 54 9 11 20 12 48 4 27 -7 38 -7
44 4 18 28 9 47 -28 57 -50 14 -52 14 -93 -7z"/>
<path d="M460 280 l0 -140 35 0 35 0 0 50 c0 49 1 50 31 50 43 0 69 17 85 56
12 29 12 39 0 68 -19 45 -42 56 -120 56 l-66 0 0 -140z"/>
<path d="M690 280 l0 -140 35 0 35 0 0 50 c0 28 4 50 10 50 5 0 25 -22 42 -50
30 -45 37 -50 71 -50 42 0 43 -3 -9 71 l-32 46 21 21 c32 32 28 88 -7 118 -23
20 -38 24 -97 24 l-69 0 0 -140z"/>
<path d="M1200 390 c0 -28 3 -30 35 -30 l35 0 0 -110 0 -110 40 0 40 0 0 110
0 110 33 0 c31 0 34 3 35 30 l1 30 -110 0 -109 0 0 -30z"/>
<path d="M2050 390 c0 -28 3 -30 35 -30 l35 0 0 -110 0 -110 35 0 35 0 0 110
0 110 35 0 c32 0 35 2 35 30 l0 30 -105 0 -105 0 0 -30z"/>
<path d="M2290 280 l0 -140 85 0 85 0 0 30 c0 29 -1 30 -50 30 -49 0 -50 1
-50 30 0 29 2 30 45 30 44 0 45 1 45 31 0 31 -1 31 -45 27 -41 -3 -45 -1 -45
19 0 21 5 23 50 23 49 0 50 1 50 30 l0 30 -85 0 -85 0 0 -140z"/>
<path d="M2490 280 l0 -140 30 0 30 0 1 83 0 82 26 -82 c25 -80 27 -83 57 -83
30 0 32 3 58 83 l27 82 0 -82 1 -83 35 0 35 0 0 141 0 140 -47 -3 -46 -3 -31
-93 -31 -93 -29 95 -29 96 -43 0 -44 0 0 -140z"/>
</g>
</svg>
