<svg xmlns="http://www.w3.org/2000/svg" width="34" height="27" viewBox="0 0 34 27">
    <g fill="none" fill-rule="evenodd" stroke="#4A4A4A">
        <path fill-rule="nonzero" stroke-width="1.71" d="M32.39 25.374a.042.042 0 0 0 .042-.043c0-6.25-5.086-11.337-11.337-11.337-6.25 0-11.338 5.087-11.338 11.337a.043.043 0 1 0 .086 0c0-6.205 5.047-11.252 11.252-11.252 6.205 0 11.252 5.047 11.252 11.252 0 .024.019.043.043.043z"/>
        <path stroke-linecap="round" stroke-width="1.71" d="M10.132 25.436h10.773"/>
        <path fill-rule="nonzero" stroke-width="1.282" d="M21.095 13.958a6.44 6.44 0 0 0 6.431-6.431 6.439 6.439 0 0 0-6.43-6.43 6.439 6.439 0 0 0-6.432 6.43 6.44 6.44 0 0 0 6.431 6.431z"/>
        <path fill-rule="nonzero" stroke-width="1.282" d="M9.832 12.184a4.923 4.923 0 0 0 4.917-4.917 4.923 4.923 0 0 0-4.917-4.916 4.923 4.923 0 0 0-4.916 4.916 4.923 4.923 0 0 0 4.916 4.917z"/>
        <path fill-rule="nonzero" stroke-width="1.71" d="M7.807 22.792c.024 0 .043-.02.043-.043a.043.043 0 0 0-.043-.043H.897l.091-.938c.468-4.773 4.31-8.225 9.201-8.225 1.61 0 3.207.455 4.74 1.342.021.012.048.005.06-.014a.044.044 0 0 0-.016-.06c-1.557-.9-3.164-1.353-4.784-1.353-5.337 0-9.334 3.98-9.334 9.291 0 .023.02.043.043.043h6.91z"/>
    </g>
</svg>
