<?xml version="1.0" encoding="UTF-8"?>
<svg width="45px" height="19px" viewBox="0 0 45 19" version="1.1" xmlns="http://www.w3.org/2000/svg" xmlns:xlink="http://www.w3.org/1999/xlink">
    <!-- Generator: Sketch 61.2 (89653) - https://sketch.com -->
    <title>full - full</title>
    <desc>Created with Sketch.</desc>
    <defs>
        <linearGradient x1="50%" y1="0%" x2="50%" y2="100%" id="linearGradient-1">
            <stop stop-color="#FFDD00" offset="0%"></stop>
            <stop stop-color="#FFB800" offset="100%"></stop>
        </linearGradient>
        <path d="M10.9879662,8.42295639 C10.8733963,8.53225385 10.823272,8.69091147 10.8519145,8.84604335 L11.6718051,13.4753199 L7.43988066,11.2999478 C7.30024863,11.2259075 7.13197414,11.2294333 6.98876181,11.2999478 L2.77115863,13.5 L3.56240676,8.86367198 C3.58746892,8.70854009 3.5373446,8.5534082 3.42277474,8.44411073 L-1.82076576e-13,5.17223818 L4.72242665,4.48119613 C4.87996022,4.45651606 5.01601193,4.36132149 5.08403779,4.2202925 L7.18209846,0 L9.30880159,4.20971533 C9.38040776,4.35074432 9.51645947,4.44593889 9.67399304,4.47061896 L14.4,5.13345521 L10.9879662,8.42295639 Z" id="path-2"></path>
        <path d="M10.9879662,8.42295639 C10.8733963,8.53225385 10.823272,8.69091147 10.8519145,8.84604335 L11.6718051,13.4753199 L7.43988066,11.2999478 C7.30024863,11.2259075 7.13197414,11.2294333 6.98876181,11.2999478 L2.77115863,13.5 L3.56240676,8.86367198 C3.58746892,8.70854009 3.5373446,8.5534082 3.42277474,8.44411073 L-1.82076576e-13,5.17223818 L4.72242665,4.48119613 C4.87996022,4.45651606 5.01601193,4.36132149 5.08403779,4.2202925 L7.18209846,0 L9.30880159,4.20971533 C9.38040776,4.35074432 9.51645947,4.44593889 9.67399304,4.47061896 L14.4,5.13345521 L10.9879662,8.42295639 Z" id="path-4"></path>
    </defs>
    <g id="Page-1" stroke="none" stroke-width="1" fill="none" fill-rule="evenodd">
        <g id="Group" transform="translate(-71.000000, -161.000000)">
            <g id="full---full" transform="translate(74.000000, 164.000000)">
                <g id="full">
                    <mask id="mask-3" fill="white">
                        <use xlink:href="#path-2"></use>
                    </mask>
                    <path stroke="#FFBF00" d="M11.3465435,8.77178231 L12.3399884,14.380983 L11.443218,13.9200085 L7.21439718,11.7461862 L2.10871291,14.4094932 L2.27828477,13.4158848 L3.06682371,8.79554785 L-1.08598429,4.82582751 L-0.0723949972,4.67750698 L4.64125237,3.98777538 L7.17850706,-1.11596498 L7.62838186,-0.225457597 L9.75119121,3.97655246 L15.4860955,4.7808895 L11.3465435,8.77178231 Z"></path>
                </g>
                <g id="full-copy" transform="translate(25.000000, 0.000000)">
                    <mask id="mask-5" fill="white">
                        <use xlink:href="#path-4"></use>
                    </mask>
                    <path stroke="#FFBF00" d="M11.3465435,8.77178231 L12.3399884,14.380983 L11.443218,13.9200085 L7.21439718,11.7461862 L2.10871291,14.4094932 L2.27828477,13.4158848 L3.06682371,8.79554785 L-1.08598429,4.82582751 L-0.0723949972,4.67750698 L4.64125237,3.98777538 L7.17850706,-1.11596498 L7.62838186,-0.225457597 L9.75119121,3.97655246 L15.4860955,4.7808895 L11.3465435,8.77178231 Z"></path>
                </g>
            </g>
        </g>
    </g>
</svg>