<?xml version="1.0" encoding="UTF-8"?>
<svg width="99px" height="99px" viewBox="0 0 99 99" version="1.1" xmlns="http://www.w3.org/2000/svg" xmlns:xlink="http://www.w3.org/1999/xlink">
    <!-- Generator: Sketch 61.2 (89653) - https://sketch.com -->
    <title>C</title>
    <desc>Created with Sketch.</desc>
    <defs>
        <rect id="path-1" x="0" y="0" width="89" height="89" rx="2"></rect>
        <filter x="-9.0%" y="-6.8%" width="118.1%" height="118.1%" filterUnits="objectBoundingBox" id="filter-2">
            <feMorphology radius="1.05" operator="dilate" in="SourceAlpha" result="shadowSpreadOuter1"></feMorphology>
            <feOffset dx="0" dy="2" in="shadowSpreadOuter1" result="shadowOffsetOuter1"></feOffset>
            <feGaussianBlur stdDeviation="2" in="shadowOffsetOuter1" result="shadowBlurOuter1"></feGaussianBlur>
            <feComposite in="shadowBlurOuter1" in2="SourceAlpha" operator="out" result="shadowBlurOuter1"></feComposite>
            <feColorMatrix values="0 0 0 0 0   0 0 0 0 0   0 0 0 0 0  0 0 0 0.26 0" type="matrix" in="shadowBlurOuter1"></feColorMatrix>
        </filter>
    </defs>
    <g id="Page-1" stroke="none" stroke-width="1" fill="none" fill-rule="evenodd">
        <g id="Property---Rating-Detail-1" transform="translate(-1108.000000, -1164.000000)">
            <g id="Table" transform="translate(134.000000, 887.000000)">
                <g id="Right-part" transform="translate(840.000000, 107.000000)">
                    <g id="vastu-select" transform="translate(40.000000, 74.000000)">
                        <g id="C" transform="translate(99.000000, 99.000000)">
                            <g id="Rectangle-Copy-11">
                                <use fill="black" fill-opacity="1" filter="url(#filter-2)" xlink:href="#path-1"></use>
                                <rect stroke="#9B9B9B" stroke-width="1.05" fill="#FFFFFF" fill-rule="evenodd" x="-0.525" y="-0.525" width="90.05" height="90.05" rx="2"></rect>
                            </g>
                            <path d="M85.6105325,42.5681938 L59.2542086,33.7038761 L68.8621497,21.873911 C69.1563028,21.51275 69.1286157,20.9897013 68.7993689,20.6616936 C68.4717092,20.3340387 67.9486529,20.3059994 67.588721,20.5992664 L55.5173363,30.4036963 L46.4338622,3.38927098 C46.1550517,2.55937643 45.3766395,2 44.5007054,2 C43.6245949,2 42.8463591,2.55937643 42.5673722,3.38927098 L33.4838981,30.4022855 L21.4126898,20.5978556 C21.0529343,20.3047649 20.5300543,20.3326279 20.2004548,20.6602829 C19.8727951,20.9881141 19.8447553,21.5113392 20.1376739,21.8726766 L29.7456151,33.7038761 L3.3894675,42.5681938 C2.55938456,42.8470003 2,43.6254012 2,44.5013226 C2,45.3774204 2.55938456,46.1556449 3.3894675,46.4346277 L30.3340975,55.49575 L20.1374976,68.0480372 C19.844579,68.4093747 19.8726187,68.9338342 20.2002784,69.2614891 C20.5282908,69.5894967 21.0513471,69.6157726 21.4125134,69.3230346 L33.7267331,59.3218002 L42.5673722,85.6109054 C42.8465354,86.4406236 43.6245949,87 44.5007054,87 C45.3766395,87 46.1550517,86.4406236 46.4338622,85.6109054 L55.274854,59.3216238 L67.588721,69.3228583 C67.9486529,69.6155962 68.47312,69.5894967 68.800956,69.2613127 C69.1287921,68.9338342 69.1566555,68.4077875 68.8637369,68.0478609 L58.6673133,55.4955737 L85.6107088,46.4344514 C86.4406154,46.1554686 87,45.377244 87,44.5011463 C87,43.6254012 86.4402627,42.8470003 85.6105325,42.5681938 Z M78,45 L50,45 L56.0067963,37 L78,45 Z M45,10 L45,39 L37,32.7782095 L45,10 Z M11,44 L38.6308345,44 L39,44.4838433 L33.2821864,52 L11,44 Z M44,78 L44,50 L52,56.0073087 L44,78 Z" id="icon" fill="#D9D9D9" fill-rule="nonzero"></path>
                        </g>
                    </g>
                </g>
            </g>
        </g>
    </g>
</svg>